<svg width="102" height="67" viewBox="0 0 205 135" fill="none" xmlns="http://www.w3.org/2000/svg">
<path d="M204.85 0H183.4V20.91H204.85V0Z" fill="white"/>
<path d="M151.67 38L204.58 134.65H91C96.25 126.32 101.75 118.83 107 110.5C125.16 110.63 143.08 109.93 161.24 110.06C152.75 94.37 144.25 78.67 135.76 62.98C141.06 54.65 146.37 46.33 151.67 38Z" fill="white"/>
<path d="M69.42 134.8L139.59 23.02C136.05 15.35 132.5 7.68 128.96 0C100.29 44.88 71.61 89.77 42.94 134.65L69.42 134.79V134.8Z" fill="white"/>
<path d="M204.85 29.06H183.4V134.79H204.85V29.06Z" fill="white"/>
<path d="M105 38.15L158.5 134.5L44.33 134.8C49.58 126.47 54.83 118.14 60.08 109.81C78.24 109.94 96.41 110.08 114.57 110.21C106.08 94.52 97.58 78.82 89.09 63.13C94.39 54.8 99.7 46.48 105 38.15Z" fill="white"/>
<path d="M26.48 134.8L96.65 23.02C93.11 15.35 89.56 7.68 86.02 0C57.35 44.88 28.67 89.77 0 134.65L26.48 134.79V134.8Z" fill="white"/>
</svg>
