<svg width="1374" height="582" viewBox="0 0 1374 582" fill="none" xmlns="http://www.w3.org/2000/svg">
<path d="M1151.04 581.78L928.294 155.248H1058.96L1122.6 285.916C1128.27 297.236 1133.54 308.179 1138.85 319.768C1143.65 330.237 1147.22 338.657 1153.36 352.785C1159.87 339.011 1163.68 330.6 1168.64 319.768C1173.8 308.523 1178.94 297.558 1184.89 285.916L1248.53 155.248H1373.78L1151.04 581.78Z" fill="#181818"/>
<path d="M773.26 581.783V155.248H891.064V581.783H773.26Z" fill="#181818"/>
<path d="M216.279 581.784C176.735 581.784 140.524 572.231 107.645 553.126C74.7664 534.021 48.5522 508.251 29.0026 475.816C9.89735 443.382 0.344727 407.615 0.344727 368.516C0.344727 328.973 9.89735 293.206 29.0026 261.216C48.5522 228.781 74.7664 203.011 107.645 183.906C140.524 164.801 176.735 155.248 216.279 155.248C256.266 155.248 292.477 164.801 324.912 183.906C357.791 203.011 383.783 228.781 402.888 261.216C422.438 293.206 432.212 328.973 432.212 368.516C432.212 407.615 422.438 443.382 402.888 475.816C383.783 508.251 357.791 534.021 324.912 553.126C292.477 572.231 256.266 581.784 216.279 581.784ZM216.279 477.816C236.272 477.816 254.267 472.928 270.262 463.154C286.701 453.379 299.586 440.272 308.917 423.832C318.692 406.949 323.579 388.51 323.579 368.516C323.579 348.078 318.692 329.639 308.917 313.2C299.586 296.76 286.701 283.653 270.262 273.878C254.267 264.104 236.272 259.216 216.279 259.216C196.285 259.216 178.068 264.104 161.629 273.878C145.634 283.653 132.749 296.76 122.974 313.2C113.643 329.639 108.978 348.078 108.978 368.516C108.978 388.51 113.643 406.949 122.974 423.832C132.749 440.272 145.634 453.379 161.629 463.154C178.068 472.928 196.285 477.816 216.279 477.816Z" fill="#181818"/>
<path d="M469.438 581.782V155.247C522.897 155.246 576.356 155.248 629.815 155.246C654.965 155.246 706.415 155.246 736.037 155.246V256.194C721.099 256.194 717.292 256.194 706.184 256.194C671.47 256.194 610.678 256.194 590.241 256.194C590.241 276.403 590.241 346.477 590.241 389.13V581.782H469.438Z" fill="#181818"/>
<rect x="773.26" y="0.3125" width="117.796" height="117.796" fill="#FFC700"/>
</svg>
