<svg xmlns="http://www.w3.org/2000/svg" xmlns:xlink="http://www.w3.org/1999/xlink" width="400" zoomAndPan="magnify" viewBox="0 0 300 299.999988" height="400" preserveAspectRatio="xMidYMid meet" version="1.0"><defs><g/><clipPath id="0b9d95b2aa"><path d="M 12.089844 0 L 150 0 L 150 31.960938 L 12.089844 31.960938 Z M 12.089844 0 " clip-rule="nonzero"/></clipPath><clipPath id="e21e446f9f"><path d="M 130.109375 0 L 12.089844 0 L 31.980469 31.960938 L 150 31.960938 Z M 130.109375 0 " clip-rule="nonzero"/></clipPath><clipPath id="b850788438"><path d="M 0.0898438 0 L 138 0 L 138 31.960938 L 0.0898438 31.960938 Z M 0.0898438 0 " clip-rule="nonzero"/></clipPath><clipPath id="0a6e1ac5a9"><path d="M 118.109375 0 L 0.0898438 0 L 19.980469 31.960938 L 138 31.960938 Z M 118.109375 0 " clip-rule="nonzero"/></clipPath><clipPath id="19019b2a31"><rect x="0" width="138" y="0" height="32"/></clipPath><clipPath id="b8a20148d4"><path d="M 0 12.789062 L 31.960938 12.789062 L 31.960938 150.875 L 0 150.875 Z M 0 12.789062 " clip-rule="nonzero"/></clipPath><clipPath id="00608ebb8b"><path d="M 31.960938 32.679688 L 31.960938 150.816406 L -0.00390625 130.925781 L -0.00390625 12.789062 Z M 31.960938 32.679688 " clip-rule="nonzero"/></clipPath><clipPath id="f14bbb2b4c"><path d="M 0 0.789062 L 31.960938 0.789062 L 31.960938 138.875 L 0 138.875 Z M 0 0.789062 " clip-rule="nonzero"/></clipPath><clipPath id="218b432e0c"><path d="M 31.960938 20.679688 L 31.960938 138.816406 L -0.00390625 118.925781 L -0.00390625 0.789062 Z M 31.960938 20.679688 " clip-rule="nonzero"/></clipPath><clipPath id="d3127a5da6"><rect x="0" width="32" y="0" height="139"/></clipPath><clipPath id="0f8fb786d7"><path d="M 150 268.035156 L 287.90625 268.035156 L 287.90625 299.996094 L 150 299.996094 Z M 150 268.035156 " clip-rule="nonzero"/></clipPath><clipPath id="ea7972c30d"><path d="M 169.890625 299.996094 L 287.90625 299.996094 L 268.015625 268.035156 L 150 268.035156 Z M 169.890625 299.996094 " clip-rule="nonzero"/></clipPath><clipPath id="5285b8db34"><path d="M 0 0.0351562 L 137.90625 0.0351562 L 137.90625 31.996094 L 0 31.996094 Z M 0 0.0351562 " clip-rule="nonzero"/></clipPath><clipPath id="c8edb51c9d"><path d="M 19.890625 31.996094 L 137.90625 31.996094 L 118.015625 0.0351562 L 0 0.0351562 Z M 19.890625 31.996094 " clip-rule="nonzero"/></clipPath><clipPath id="8d261eeb1c"><rect x="0" width="138" y="0" height="32"/></clipPath><clipPath id="d8cd66f185"><path d="M 268.039062 149.121094 L 300 149.121094 L 300 287.207031 L 268.039062 287.207031 Z M 268.039062 149.121094 " clip-rule="nonzero"/></clipPath><clipPath id="c372fc8ed9"><path d="M 268.039062 267.316406 L 268.039062 149.179688 L 300 169.070312 L 300 287.207031 Z M 268.039062 267.316406 " clip-rule="nonzero"/></clipPath><clipPath id="6fa8e11543"><path d="M 0.0390625 0.121094 L 32 0.121094 L 32 138.207031 L 0.0390625 138.207031 Z M 0.0390625 0.121094 " clip-rule="nonzero"/></clipPath><clipPath id="d05fd3a420"><path d="M 0.0390625 118.316406 L 0.0390625 0.179688 L 32 20.070312 L 32 138.207031 Z M 0.0390625 118.316406 " clip-rule="nonzero"/></clipPath><clipPath id="a33a0b14e5"><rect x="0" width="32" y="0" height="139"/></clipPath><clipPath id="90041d9727"><rect x="0" width="205" y="0" height="27"/></clipPath><clipPath id="a50e59a518"><rect x="0" width="300" y="0" height="300"/></clipPath></defs><rect x="-30" width="360" fill="#ffffff" y="-29.999999" height="359.999986" fill-opacity="1"/><g transform="matrix(1, 0, 0, 1, 0, 0)"><g clip-path="url(#a50e59a518)"><g clip-path="url(#0b9d95b2aa)"><g clip-path="url(#e21e446f9f)"><g transform="matrix(1, 0, 0, 1, 12, 0)"><g clip-path="url(#19019b2a31)"><g clip-path="url(#b850788438)"><g clip-path="url(#0a6e1ac5a9)"><path fill="#000000" d="M 0.0898438 0 L 138.050781 0 L 138.050781 31.960938 L 0.0898438 31.960938 Z M 0.0898438 0 " fill-opacity="1" fill-rule="nonzero"/></g></g></g></g></g></g><g clip-path="url(#b8a20148d4)"><g clip-path="url(#00608ebb8b)"><g transform="matrix(1, 0, 0, 1, 0, 12)"><g clip-path="url(#d3127a5da6)"><g clip-path="url(#f14bbb2b4c)"><g clip-path="url(#218b432e0c)"><path fill="#000000" d="M 31.960938 0.789062 L 31.960938 138.875 L -0.00390625 138.875 L -0.00390625 0.789062 Z M 31.960938 0.789062 " fill-opacity="1" fill-rule="nonzero"/></g></g></g></g></g></g><g clip-path="url(#0f8fb786d7)"><g clip-path="url(#ea7972c30d)"><g transform="matrix(1, 0, 0, 1, 150, 268)"><g clip-path="url(#8d261eeb1c)"><g clip-path="url(#5285b8db34)"><g clip-path="url(#c8edb51c9d)"><path fill="#000000" d="M 137.90625 31.996094 L -0.0507812 31.996094 L -0.0507812 0.0351562 L 137.90625 0.0351562 Z M 137.90625 31.996094 " fill-opacity="1" fill-rule="nonzero"/></g></g></g></g></g></g><g clip-path="url(#d8cd66f185)"><g clip-path="url(#c372fc8ed9)"><g transform="matrix(1, 0, 0, 1, 268, 149)"><g clip-path="url(#a33a0b14e5)"><g clip-path="url(#6fa8e11543)"><g clip-path="url(#d05fd3a420)"><path fill="#000000" d="M 0.0390625 138.207031 L 0.0390625 0.121094 L 32 0.121094 L 32 138.207031 Z M 0.0390625 138.207031 " fill-opacity="1" fill-rule="nonzero"/></g></g></g></g></g></g><g transform="matrix(1, 0, 0, 1, 48, 135)"><g clip-path="url(#90041d9727)"><g fill="#000000" fill-opacity="1"><g transform="translate(0.264838, 20.182837)"><g><path d="M 14.972656 -4.9375 C 14.972656 -7.332031 13.804688 -8.941406 9.722656 -10.527344 C 7.148438 -11.464844 6.160156 -12.191406 6.160156 -13.363281 C 6.160156 -14.636719 7.042969 -15.699219 8.96875 -15.699219 C 10.371094 -15.699219 11.984375 -15.078125 13.050781 -14.480469 L 14.089844 -17.339844 C 12.917969 -18.015625 10.996094 -18.585938 9.046875 -18.585938 C 5.148438 -18.585938 2.910156 -16.039062 2.910156 -13.285156 C 2.910156 -11.101562 4.132812 -9.410156 7.695312 -8.109375 C 10.996094 -6.890625 11.671875 -6.160156 11.671875 -4.9375 C 11.671875 -3.769531 10.683594 -2.703125 8.527344 -2.703125 C 6.890625 -2.703125 5.070312 -3.328125 3.5625 -4.339844 L 2.445312 -1.429688 C 4.105469 -0.414062 6.265625 0.3125 8.421875 0.3125 C 12.503906 0.3125 14.972656 -1.691406 14.972656 -4.9375 Z M 14.972656 -4.9375 "/></g></g></g><g fill="#000000" fill-opacity="1"><g transform="translate(17.65363, 20.182837)"><g><path d="M 3.796875 0 L 7.019531 0 L 7.019531 -18.273438 L 3.796875 -18.273438 Z M 3.796875 0 "/></g></g></g><g fill="#000000" fill-opacity="1"><g transform="translate(28.466396, 20.182837)"><g><path d="M 3.796875 0 L 7.019531 0 L 7.019531 -11.332031 L 18.484375 0.128906 L 19.339844 0.128906 L 19.339844 -18.273438 L 16.117188 -18.273438 L 16.117188 -6.601562 L 4.808594 -18.378906 L 3.796875 -18.378906 Z M 3.796875 0 "/></g></g></g><g fill="#000000" fill-opacity="1"><g transform="translate(51.599468, 20.182837)"><g><path d="M 11.75 -9.59375 L 11.75 -6.707031 L 16.84375 -6.707031 L 16.84375 -3.457031 C 15.855469 -3.09375 14.375 -2.730469 12.6875 -2.730469 C 8.890625 -2.730469 6.082031 -5.433594 6.082031 -9.097656 C 6.082031 -12.839844 8.707031 -15.546875 12.996094 -15.546875 C 15.414062 -15.546875 17.78125 -14.347656 17.78125 -14.347656 L 18.898438 -17.105469 C 18.898438 -17.105469 16.53125 -18.585938 12.453125 -18.585938 C 7.042969 -18.585938 2.597656 -14.425781 2.597656 -9.148438 C 2.597656 -3.742188 6.707031 0.3125 12.894531 0.3125 C 17.234375 0.3125 19.964844 -1.769531 19.964844 -1.769531 L 19.964844 -9.59375 Z M 11.75 -9.59375 "/></g></g></g><g fill="#000000" fill-opacity="1"><g transform="translate(74.368641, 20.182837)"><g><path d="M 3.585938 -7.566406 C 3.585938 -2.105469 6.578125 0.339844 11.152344 0.339844 C 15.726562 0.339844 18.820312 -2.105469 18.820312 -7.566406 L 18.820312 -18.273438 L 15.597656 -18.273438 L 15.597656 -7.589844 C 15.597656 -4.082031 13.90625 -2.625 11.152344 -2.625 C 8.394531 -2.625 6.8125 -4.082031 6.8125 -7.566406 L 6.8125 -18.273438 L 3.585938 -18.273438 Z M 3.585938 -7.566406 "/></g></g></g><g fill="#000000" fill-opacity="1"><g transform="translate(96.747937, 20.182837)"><g><path d="M 3.796875 0 L 15.675781 0 L 15.675781 -2.964844 L 7.019531 -2.964844 L 7.019531 -18.273438 L 3.796875 -18.273438 Z M 3.796875 0 "/></g></g></g><g fill="#000000" fill-opacity="1"><g transform="translate(113.876799, 20.182837)"><g><path d="M 6.5 -3.640625 L 14.347656 -3.640625 L 15.960938 0 L 19.417969 0 L 10.839844 -18.429688 L 10.113281 -18.429688 L 1.535156 0 L 4.914062 0 Z M 10.425781 -12.503906 L 13.207031 -6.210938 L 7.640625 -6.210938 Z M 10.425781 -12.503906 "/></g></g></g><g fill="#000000" fill-opacity="1"><g transform="translate(134.826522, 20.182837)"><g><path d="M 3.796875 0 L 7.019531 0 L 7.019531 -5.304688 L 9.019531 -5.304688 C 9.59375 -5.304688 10.136719 -5.328125 10.65625 -5.382812 L 14.53125 0 L 18.300781 0 L 13.621094 -6.1875 C 15.910156 -7.253906 16.949219 -9.253906 16.949219 -11.777344 C 16.949219 -15.597656 14.503906 -18.273438 9.644531 -18.273438 L 3.796875 -18.273438 Z M 9.410156 -15.3125 C 12.453125 -15.3125 13.464844 -13.777344 13.464844 -11.777344 C 13.464844 -9.773438 12.425781 -8.164062 9.410156 -8.164062 L 7.019531 -8.164062 L 7.019531 -15.3125 Z M 9.410156 -15.3125 "/></g></g></g><g fill="#000000" fill-opacity="1"><g transform="translate(155.074459, 20.182837)"><g><path d="M 3.796875 0 L 7.019531 0 L 7.019531 -18.273438 L 3.796875 -18.273438 Z M 3.796875 0 "/></g></g></g><g fill="#000000" fill-opacity="1"><g transform="translate(165.887225, 20.182837)"><g><path d="M 1.480469 -15.3125 L 7.589844 -15.3125 L 7.589844 0 L 10.839844 0 L 10.839844 -15.3125 L 16.84375 -15.3125 L 16.84375 -18.273438 L 1.480469 -18.273438 Z M 1.480469 -15.3125 "/></g></g></g><g fill="#000000" fill-opacity="1"><g transform="translate(184.21173, 20.182837)"><g><path d="M 14.425781 -18.273438 L 9.773438 -10.191406 L 5.121094 -18.273438 L 1.402344 -18.273438 L 8.109375 -7.253906 L 8.109375 0 L 11.359375 0 L 11.359375 -7.226562 L 18.066406 -18.273438 Z M 14.425781 -18.273438 "/></g></g></g></g></g></g></g></svg>